<?xml version="1.0" encoding="iso-8859-1"?>
<!-- Uploaded to: SVG Repo, www.svgrepo.com, Generator: SVG Repo Mixer Tools -->
<!DOCTYPE svg PUBLIC "-//W3C//DTD SVG 1.1//EN" "http://www.w3.org/Graphics/SVG/1.1/DTD/svg11.dtd">
<svg fill="#000000" height="800px" width="800px" version="1.1" id="Capa_1" xmlns="http://www.w3.org/2000/svg" xmlns:xlink="http://www.w3.org/1999/xlink" 
	 viewBox="0 0 435.99 435.99" xml:space="preserve">
<path d="M335.37,239.048l-55.617-16.857C373.739,222.191,321.072,0,230.639,0h-25.288C99.739,0,67.072,222.191,156.237,222.191
	l-55.617,16.857c-39.159,11.254-62.512,180.444-62.512,180.444c-0.068,0.575-0.113,1.157-0.113,1.75
	c0,8.146,6.602,14.748,14.748,14.748h330.504c8.147,0,14.748-6.602,14.748-14.748c0-0.593-0.045-1.175-0.113-1.75
	C397.882,419.492,374.529,250.302,335.37,239.048z M182.362,230.367c1.503-1.063,3.467-1.214,5.115-0.393
	c5.672,2.823,11.286,4.254,16.686,4.254h27.664c5.399,0,11.011-1.431,16.682-4.252c1.647-0.82,3.613-0.668,5.116,0.395
	c1.502,1.063,2.299,2.866,2.074,4.692l-3.636,29.531c-0.063,0.516-0.207,1.019-0.425,1.491l-29.106,62.842
	c-0.819,1.767-2.589,2.898-4.537,2.898c-1.948,0-3.718-1.13-4.537-2.898l-29.124-62.843c-0.219-0.473-0.363-0.977-0.426-1.494
	l-3.621-29.533C180.062,233.231,180.86,231.429,182.362,230.367z M151.879,134.941c-1.419-0.922-2.275-2.5-2.275-4.192v-8.232
	c0-2.761,2.239-5,5-5h2.043v-17.194c0-1.732,0.896-3.341,2.37-4.252c1.474-0.912,3.313-0.995,4.863-0.222
	c7.685,3.835,17.945,4.278,24.994,4.278c4.759,0,9.534-0.238,13.747-0.449c1.304-0.065,2.569-0.128,3.785-0.182
	c1.675-0.074,3.38-0.112,5.067-0.112c20.583,0,37.855,5.375,50.467,9.3c5.527,1.719,9.891,3.077,13.065,3.5
	c2.484,0.331,4.34,2.45,4.34,4.956v0.377h2.043c2.761,0,5,2.239,5,5v8.232c0,1.692-0.856,3.27-2.275,4.192l-4.853,3.154l-0.27,2.059
	c-1.58,11.956-8.287,27.444-17.942,41.438c-12.226,17.733-23.687,25.671-29.62,25.671h-26.862c-5.934,0-17.395-7.939-29.623-25.675
	c-9.653-13.99-16.36-29.476-17.939-41.423l-0.271-2.071L151.879,134.941z"/>
</svg>