<?xml version="1.0" encoding="UTF-8"?>
<svg xmlns="http://www.w3.org/2000/svg" xmlns:xlink="http://www.w3.org/1999/xlink" width="800px" height="800px" viewBox="0 0 800 800" version="1.1">
<g id="surface1">
<path style=" stroke:none;fill-rule:evenodd;fill:rgb(0%,0%,0%);fill-opacity:1;" d="M 324.519531 633.046875 L 366.289062 768.179688 L 387.269531 687.960938 L 377.007812 675.519531 C 372.394531 668.082031 371.351562 661.578125 373.886719 655.929688 C 379.472656 643.773438 390.96875 646.0625 401.753906 646.0625 C 413.058594 646.0625 427.019531 643.703125 430.527344 659.289062 C 431.765625 664.507812 430.269531 669.941406 426.957031 675.519531 L 416.628906 687.960938 L 437.609375 768.179688 L 475.414062 633.046875 C 502.695312 660.074219 583.371094 665.4375 613.445312 683.882812 C 622.929688 689.746094 631.503906 697.109375 638.457031 707.121094 C 657.164062 734.363281 658.527344 736.148438 663.332031 769.96875 C 661.773438 787.769531 652.613281 798.066406 634.492188 799.640625 L 165.507812 799.640625 C 147.386719 798.136719 138.226562 787.84375 136.667969 769.96875 C 141.472656 736.148438 142.90625 734.363281 161.542969 707.121094 C 168.429688 697.039062 177.007812 689.675781 186.554688 683.882812 C 216.5625 665.4375 297.304688 660.003906 324.519531 633.046875 Z M 182.65625 624.113281 C 182.136719 622.96875 181.550781 621.964844 180.902344 620.964844 C 177.980469 615.675781 175.058594 610.457031 172.070312 604.449219 C 169.144531 597.941406 166.222656 591.867188 163.558594 586.21875 C 160.960938 580.140625 158.425781 573.632812 156.21875 567.199219 C 154.398438 561.550781 152.191406 555.117188 149.980469 547.394531 C 146.738281 536.453125 137.445312 529.664062 127.574219 529.664062 L 64.046875 529.664062 C 61.839844 529.664062 59.695312 529.304688 58.136719 528.445312 C 56.707031 527.589844 54.886719 526.445312 53.78125 524.871094 C 52.355469 523.226562 51.1875 521.65625 50.535156 520.082031 C 49.753906 518.507812 49.433594 516.007812 49.433594 513.648438 L 49.433594 425.347656 C 49.433594 422.914062 49.753906 420.914062 50.210938 419.269531 C 50.992188 417.625 52.03125 415.695312 53.914062 413.621094 C 55.339844 412.046875 56.835938 410.761719 58.265625 410.402344 C 59.757812 409.546875 61.96875 409.1875 64.113281 409.1875 L 122.507812 409.1875 C 134.265625 409.1875 143.8125 399.820312 146.023438 387.738281 C 147.449219 380.875 148.945312 374.4375 150.371094 368.71875 C 152.191406 362.214844 154.078125 356.136719 156.285156 349.699219 C 158.496094 343.625 160.636719 337.117188 163.625 331.113281 C 166.222656 324.605469 169.144531 319.027344 171.679688 313.378906 C 176.8125 302.871094 174.925781 290.714844 167.652344 282.707031 L 122.117188 232.15625 C 121.792969 231.800781 121.792969 231.800781 121.339844 231.800781 C 119.90625 230.226562 118.738281 228.582031 118.089844 227.011719 C 117.3125 225.4375 117.3125 223.792969 117.3125 221.363281 C 117.3125 218.929688 117.636719 216.929688 118.417969 215.285156 C 119.195312 213.28125 120.234375 211.710938 122.117188 209.636719 L 178.304688 148.148438 C 180.125 146.144531 181.550781 144.929688 183.4375 144.070312 C 184.929688 143.214844 186.683594 142.855469 188.957031 142.855469 C 191.164062 142.855469 192.984375 143.214844 194.476562 144.070312 C 195.972656 144.929688 197.726562 146.074219 199.285156 147.648438 L 199.609375 147.648438 L 241.117188 193.335938 C 249.171875 202.199219 262.03125 203.414062 271.257812 196.195312 C 276.066406 192.976562 280.804688 189.757812 286.261719 186.46875 C 292.109375 183.253906 297.695312 180.035156 302.828125 177.105469 C 308.34375 174.242188 314.257812 171.457031 320.101562 169.023438 C 325.234375 167.023438 331.082031 164.589844 338.097656 162.160156 C 348.035156 158.585938 354.203125 148.363281 354.203125 137.492188 L 354.203125 67.425781 C 354.203125 64.996094 354.53125 62.636719 355.308594 60.917969 C 356.089844 59.347656 357.128906 57.703125 358.230469 56.128906 C 359.726562 54.554688 361.15625 53.269531 362.585938 52.910156 C 364.011719 52.054688 366.289062 51.695312 368.496094 51.695312 L 431.375 51.695312 C 433.582031 51.695312 435.722656 52.054688 437.285156 52.910156 C 438.714844 53.269531 440.210938 54.554688 441.636719 56.128906 C 442.742188 57.703125 443.847656 59.347656 444.558594 60.917969 C 445.339844 62.492188 445.664062 64.996094 445.664062 67.425781 L 445.664062 137.421875 C 445.664062 148.363281 451.898438 158.441406 461.773438 162.089844 C 468.726562 164.519531 474.632812 166.878906 479.765625 168.953125 C 485.679688 171.382812 491.523438 174.242188 497.046875 177.03125 C 502.175781 179.890625 507.699219 183.109375 513.609375 186.398438 C 519.128906 189.617188 523.871094 192.832031 528.613281 196.121094 C 537.773438 203.414062 550.632812 202.199219 558.753906 193.261719 L 600.257812 147.574219 L 600.585938 147.574219 C 602.011719 146.003906 603.832031 144.714844 605.390625 144 C 606.820312 143.140625 608.640625 142.785156 610.914062 142.785156 C 613.121094 142.785156 614.941406 143.140625 616.433594 144 C 618.316406 144.859375 619.679688 146.003906 621.566406 148.074219 L 677.753906 209.5625 C 679.570312 211.566406 680.675781 213.140625 681.457031 215.210938 C 682.234375 216.785156 682.558594 218.789062 682.558594 221.289062 C 682.558594 223.722656 682.558594 225.367188 681.777344 226.9375 C 681 228.582031 679.960938 230.15625 678.535156 231.730469 C 678.207031 231.730469 678.207031 231.730469 677.753906 232.085938 L 632.21875 282.636719 C 624.878906 290.714844 623.0625 302.871094 628.191406 313.308594 C 630.789062 318.957031 633.710938 324.605469 636.246094 331.039062 C 639.167969 337.117188 641.378906 343.625 643.585938 349.628906 C 645.796875 356.0625 647.613281 362.214844 649.496094 368.648438 C 650.925781 374.296875 652.417969 380.730469 653.847656 387.667969 C 656.058594 399.75 665.605469 409.117188 677.363281 409.117188 L 735.691406 409.117188 C 737.902344 409.117188 740.046875 409.472656 741.605469 410.332031 C 743.03125 410.6875 744.527344 411.90625 745.957031 413.550781 C 747.839844 415.621094 748.882812 417.625 749.660156 419.199219 C 749.980469 420.769531 750.441406 422.773438 750.441406 425.273438 L 750.441406 513.433594 C 750.441406 515.863281 750.113281 518.222656 749.335938 519.9375 C 748.554688 521.582031 747.449219 523.15625 746.085938 524.730469 C 744.980469 526.300781 743.164062 527.589844 741.734375 528.304688 C 740.242188 529.160156 738.03125 529.519531 735.886719 529.519531 L 672.296875 529.519531 C 662.359375 529.519531 653.199219 536.382812 649.886719 547.25 C 647.675781 554.902344 645.53125 561.40625 643.652344 567.054688 C 641.441406 573.5625 638.84375 579.996094 636.308594 586.074219 C 630.789062 598.015625 625.460938 609.453125 619.03125 620.824219 C 618.382812 621.824219 617.796875 622.824219 617.28125 623.96875 L 672.878906 623.96875 C 675.21875 618.820312 677.558594 613.242188 680.023438 607.523438 C 682.949219 600.230469 685.875 593.007812 688.535156 585.71875 C 688.859375 584.5 689.640625 582.855469 690.027344 581.640625 L 737.054688 581.640625 C 745.5 581.640625 753.621094 580.070312 760.894531 576.851562 C 768.234375 573.632812 775.253906 568.34375 781.160156 561.90625 C 787.074219 555.472656 791.816406 548.109375 794.738281 539.601562 C 797.664062 531.09375 799.089844 522.582031 799.089844 513.359375 L 799.089844 425.273438 C 799.089844 416.410156 797.273438 407.542969 794.28125 399.390625 C 791.359375 391.3125 786.941406 384.019531 781.097656 377.585938 L 780.773438 377.226562 C 774.863281 370.722656 768.234375 365.503906 760.960938 362.214844 C 753.621094 358.636719 745.5 356.921875 737.125 356.921875 L 697.046875 356.921875 C 697.046875 355.707031 696.71875 354.921875 696.265625 353.703125 C 694.054688 346.054688 691.914062 338.332031 689.316406 331.039062 C 686.390625 323.390625 683.792969 316.023438 680.871094 309.234375 C 680.546875 308.375 679.765625 307.230469 679.441406 306.015625 L 712.570312 269.195312 C 718.804688 263.117188 723.222656 255.894531 726.46875 247.746094 C 729.394531 239.664062 731.273438 230.726562 731.273438 221.503906 C 731.273438 212.136719 729.847656 203.773438 726.46875 195.265625 C 723.222656 187.183594 718.738281 179.890625 712.894531 173.457031 L 712.570312 173.457031 L 656.382812 111.96875 C 650.535156 105.535156 643.847656 100.671875 636.113281 97.027344 C 628.382812 93.449219 620.65625 91.734375 612.277344 91.734375 C 604.222656 91.734375 596.167969 93.308594 588.4375 97.027344 C 580.707031 100.242188 574.082031 105.535156 568.171875 111.96875 L 539.523438 143.140625 L 537.320312 141.925781 C 531.40625 138.351562 524.78125 135.0625 517.832031 131.417969 C 511.203125 128.199219 504.644531 124.980469 498.019531 122.050781 C 496.914062 121.691406 495.417969 120.835938 494.316406 120.40625 L 494.316406 68.570312 C 494.316406 59.203125 492.886719 50.335938 489.964844 42.328125 C 487.042969 34.179688 482.234375 26.527344 476.386719 20.023438 C 470.152344 13.515625 463.527344 8.296875 456.121094 5.078125 C 448.457031 1.863281 440.726562 0.289062 432.21875 0.289062 L 367.78125 0.289062 C 359.273438 0.289062 351.671875 1.863281 343.941406 5.078125 C 336.667969 8.296875 329.980469 13.585938 323.675781 20.023438 C 317.765625 26.527344 313.023438 34.179688 310.097656 42.328125 C 307.175781 50.335938 305.75 59.347656 305.75 68.570312 L 305.75 120.335938 C 304.644531 120.691406 303.148438 121.550781 302.046875 121.980469 C 295.417969 124.839844 288.859375 128.054688 282.234375 131.34375 C 275.285156 134.921875 268.65625 138.207031 262.75 141.855469 L 260.539062 143.070312 L 231.894531 111.898438 C 226.046875 105.460938 219.355469 100.171875 211.625 96.953125 C 203.894531 93.378906 195.839844 91.664062 187.789062 91.664062 C 179.277344 91.664062 171.679688 93.238281 163.949219 96.953125 C 156.21875 100.527344 149.59375 105.460938 143.683594 111.898438 L 87.496094 173.386719 L 87.167969 173.386719 C 81.324219 179.820312 76.90625 187.183594 73.59375 195.191406 C 70.347656 203.628906 68.789062 212.136719 68.789062 221.363281 C 68.789062 230.726562 70.605469 239.59375 73.59375 247.601562 C 76.84375 255.679688 81.324219 262.972656 87.558594 269.050781 L 120.625 305.871094 C 120.296875 307.089844 119.519531 308.304688 119.195312 309.089844 C 116.269531 315.953125 113.671875 323.246094 110.683594 330.898438 C 108.085938 338.191406 105.878906 345.839844 103.734375 353.5625 C 103.410156 354.777344 102.953125 355.5625 102.953125 356.777344 L 63.007812 356.777344 C 54.5 356.777344 46.441406 358.421875 39.167969 362.070312 C 31.828125 365.289062 25.203125 370.578125 19.355469 377.011719 L 19.03125 377.371094 C 13.121094 383.804688 8.769531 391.171875 5.84375 399.179688 C 2.726562 407.398438 0.910156 416.410156 0.910156 425.273438 L 0.910156 513.359375 C 0.910156 522.726562 2.335938 531.09375 5.261719 539.601562 C 8.183594 548.109375 12.988281 555.402344 18.835938 561.90625 C 24.683594 568.414062 31.699219 573.632812 39.105469 576.851562 C 46.441406 580.070312 54.5625 581.640625 62.945312 581.640625 L 109.972656 581.640625 C 110.292969 582.855469 111.074219 584.5 111.464844 585.71875 C 114.0625 593.007812 116.984375 600.230469 119.976562 607.523438 C 122.507812 613.316406 124.78125 618.890625 127.121094 623.96875 L 182.65625 623.96875 Z M 305.617188 439.71875 C 300.421875 439.933594 296.523438 441.148438 293.859375 443.078125 C 292.300781 444.222656 291.195312 445.652344 290.484375 447.367188 C 289.636719 449.226562 289.316406 451.585938 289.378906 454.230469 C 289.574219 462.097656 293.339844 472.25 300.488281 483.976562 L 300.550781 484.1875 L 323.871094 525.015625 C 333.222656 541.386719 343.03125 558.117188 355.179688 570.34375 C 366.871094 582.140625 381.097656 590.078125 399.9375 590.148438 C 420.265625 590.222656 435.207031 581.925781 447.222656 569.414062 C 459.757812 556.472656 469.699219 538.742188 479.507812 520.9375 L 505.75 473.320312 C 510.621094 461.023438 512.441406 452.800781 511.335938 447.941406 C 510.621094 445.078125 507.761719 443.648438 502.890625 443.433594 C 501.851562 443.363281 500.8125 443.363281 499.707031 443.363281 C 498.535156 443.433594 497.304688 443.507812 496.003906 443.578125 C 495.292969 443.648438 494.640625 443.578125 493.992188 443.433594 C 491.65625 443.578125 489.25 443.363281 486.78125 443.007812 L 495.746094 399.179688 C 447.742188 398.535156 414.808594 389.3125 375.964844 361.925781 C 363.171875 352.988281 359.335938 342.695312 346.542969 343.695312 C 336.929688 345.695312 328.808594 350.488281 322.3125 358.136719 C 316.140625 365.429688 311.464844 375.441406 308.414062 388.238281 L 313.542969 439.859375 C 310.816406 440.21875 308.152344 440.074219 305.617188 439.71875 Z M 511.984375 430.492188 C 518.480469 432.640625 522.636719 437.214844 524.261719 444.507812 C 526.144531 452.660156 524.066406 464.027344 517.894531 479.542969 C 517.765625 479.828125 517.636719 480.113281 517.507812 480.398438 L 490.9375 528.589844 C 480.675781 547.179688 470.285156 565.769531 456.382812 580.070312 C 442.027344 594.867188 424.292969 604.734375 400.0625 604.664062 C 377.460938 604.59375 360.441406 595.082031 346.476562 580.996094 C 332.964844 567.414062 322.636719 549.894531 312.832031 532.664062 L 289.511719 491.839844 C 281 477.824219 276.582031 465.027344 276.257812 454.515625 C 276.128906 449.585938 276.90625 445.078125 278.535156 441.148438 C 280.285156 437 282.949219 433.570312 286.519531 430.921875 C 288.210938 429.707031 290.09375 428.636719 292.171875 427.777344 C 290.679688 405.683594 290.09375 377.726562 291.070312 354.347656 C 291.585938 348.84375 292.496094 343.265625 293.925781 337.6875 C 299.902344 314.238281 314.84375 295.363281 333.355469 282.421875 C 339.851562 277.84375 346.996094 274.054688 354.59375 271.054688 C 399.351562 253.105469 458.785156 262.902344 490.613281 300.722656 C 503.539062 316.167969 511.726562 336.617188 513.480469 363.644531 Z M 511.984375 430.492188 "/>
</g>
</svg>
