<?xml version="1.0" encoding="UTF-8"?>
<svg xmlns="http://www.w3.org/2000/svg" xmlns:xlink="http://www.w3.org/1999/xlink" width="800px" height="800px" viewBox="0 0 800 800" version="1.1">
<g id="surface1">
<path style=" stroke:none;fill-rule:nonzero;fill:rgb(0%,0%,0%);fill-opacity:1;" d="M 376.472656 9.414062 C 331.863281 14.648438 292.648438 34.257812 269.9375 63.007812 C 259.3125 76.566406 248.367188 98.792969 243.632812 116.929688 C 239.710938 131.304688 239.382812 136.375 238.566406 172.320312 C 237.910156 211.863281 237.910156 211.863281 233.992188 214.480469 C 225.984375 219.710938 223.046875 229.023438 222.222656 250.59375 C 221.566406 266.929688 222.0625 272.648438 225 284.089844 C 230.71875 306.96875 242.808594 329.839844 259.640625 349.289062 C 264.703125 355.335938 268.625 362.03125 270.910156 368.894531 C 292.648438 434.089844 350.328125 478.703125 407.191406 474.617188 C 460.136719 470.855469 509.320312 428.207031 529.089844 368.894531 C 531.375 362.03125 535.296875 355.335938 540.359375 349.289062 C 557.191406 329.839844 569.28125 306.96875 575 284.089844 C 579.734375 265.296875 579.089844 234.246094 573.527344 223.960938 C 571.566406 220.199219 568.464844 216.121094 566.503906 214.648438 C 563.070312 212.359375 562.910156 211.214844 563.238281 188.671875 C 563.894531 146.183594 556.046875 114.976562 540.527344 97.167969 C 536.113281 92.105469 533.503906 87.039062 531.542969 79.6875 C 527.625 64.65625 521.742188 54.03125 512.097656 44.558594 C 486.601562 19.710938 425.328125 3.855469 376.472656 9.414062 Z M 376.472656 9.414062 "/>
<path style=" stroke:none;fill-rule:nonzero;fill:rgb(0%,0%,0%);fill-opacity:1;" d="M 232.511719 452.878906 C 121.558594 498.800781 94.273438 514.648438 66.824219 549.289062 C 35.945312 588.015625 12.902344 652.886719 8.488281 712.359375 C 6.855469 735.726562 7.015625 736.054688 46.71875 749.777344 C 208.816406 805.65625 591.167969 805.65625 753.265625 749.777344 C 792.96875 736.046875 793.136719 735.726562 791.496094 712.359375 C 788.71875 675.761719 779.566406 638.832031 764.695312 603.863281 C 741 548.800781 712.894531 519.382812 658.976562 493.078125 C 616.65625 472.488281 534.304688 438.175781 532.34375 440.304688 C 531.6875 440.960938 529.566406 448.144531 527.441406 456.320312 C 519.921875 486.382812 501.136719 550.273438 492.3125 576.089844 C 476.625 622.328125 448.519531 688.015625 445.742188 684.753906 C 444.601562 683.449219 432.671875 610.726562 432.671875 605.503906 C 432.671875 604.03125 434.144531 602.398438 435.777344 601.742188 C 440.023438 600.441406 440.023438 600.273438 448.191406 557.792969 C 454.894531 523.480469 455.214844 519.878906 453.097656 516.449219 L 450.648438 512.6875 L 349.34375 512.6875 L 346.894531 516.449219 C 344.777344 519.878906 345.097656 523.472656 351.632812 557.625 C 355.71875 578.375 359.3125 596.511719 359.96875 597.984375 C 360.625 599.617188 362.414062 601.257812 364.214844 601.742188 C 366.015625 602.398438 367.320312 604.191406 367.160156 606.320312 C 367 614.65625 354.742188 685.078125 353.601562 685.078125 C 351.800781 685.078125 334.152344 647.007812 324.023438 621.351562 C 308.503906 581.648438 292.648438 531.808594 276.640625 471.839844 C 271.902344 454.351562 267.488281 439.976562 266.671875 439.648438 C 265.847656 439.488281 250.488281 445.367188 232.511719 452.878906 Z M 232.511719 452.878906 "/>
</g>
</svg>
